<?xml version="1.0" encoding="utf-8"?>
<!-- Generator: Adobe Illustrator 27.3.1, SVG Export Plug-In . SVG Version: 6.00 Build 0)  -->
<svg version="1.1" id="Layer_1" xmlns="http://www.w3.org/2000/svg" xmlns:xlink="http://www.w3.org/1999/xlink" x="0px" y="0px"
	 viewBox="0 0 841.89 595.28" style="enable-background:new 0 0 841.89 595.28;" xml:space="preserve">
<style type="text/css">
	.st0{fill:#F200E7;}
	.st1{fill:#FFFFFF;}
</style>
<g>
	<path class="st0" d="M124.61,297.03c2.57,0,4.79-0.2,6.69-0.59c1.89-0.4,3.51-0.9,4.86-1.51c1.35-0.61,2.5-1.27,3.43-1.99
		c0.93-0.72,1.77-1.39,2.52-2c0.75-0.61,1.45-1.11,2.1-1.5c0.65-0.4,1.35-0.6,2.1-0.6c0.75,0,1.36,0.13,1.85,0.39
		c0.49,0.26,0.85,0.55,1.08,0.88l7.98,9.59c-4.43,5.27-9.7,9.28-15.79,12c-6.09,2.73-13.01,4.1-20.75,4.1
		c-6.44,0-12.15-1.13-17.12-3.4c-4.97-2.26-9.16-5.38-12.56-9.34c-3.41-3.97-5.98-8.67-7.73-14.11c-1.75-5.44-2.62-11.3-2.62-17.6
		c0-5.83,0.65-11.36,1.96-16.59c1.31-5.23,3.15-10.06,5.53-14.49c2.38-4.43,5.24-8.42,8.57-11.97c3.34-3.55,7.04-6.56,11.1-9.03
		c4.06-2.47,8.42-4.38,13.09-5.71c4.67-1.33,9.54-1.99,14.63-1.99c3.83,0,7.31,0.36,10.47,1.08c3.15,0.72,6,1.73,8.54,3.01
		c2.54,1.28,4.82,2.81,6.83,4.58c2.01,1.77,3.76,3.73,5.25,5.88l-7.98,9.24c-0.56,0.65-1.21,1.24-1.96,1.75
		c-0.75,0.51-1.73,0.77-2.94,0.77c-0.79,0-1.52-0.19-2.17-0.56c-0.65-0.37-1.32-0.83-2-1.36c-0.68-0.54-1.44-1.13-2.27-1.79
		c-0.84-0.65-1.84-1.25-3.01-1.79c-1.17-0.54-2.55-0.99-4.17-1.36c-1.61-0.37-3.51-0.56-5.71-0.56c-4.29,0-8.29,0.91-12,2.73
		s-6.93,4.42-9.66,7.81c-2.73,3.38-4.87,7.49-6.41,12.32s-2.31,10.23-2.31,16.21c0,4.34,0.52,8.21,1.58,11.62
		c1.05,3.41,2.48,6.29,4.3,8.65c1.82,2.36,3.99,4.15,6.51,5.39C118.94,296.41,121.67,297.03,124.61,297.03z"/>
	<path class="st0" d="M255.09,314.67h-17.64c-1.96,0-3.54-0.46-4.73-1.37s-1.9-2.11-2.13-3.61l-3.15-18.34h-34.65l-7.56,18.34
		c-0.51,1.31-1.52,2.46-3.01,3.47c-1.49,1-3.15,1.5-4.97,1.5h-17.92l48.72-101.99h23.38L255.09,314.67z M199.16,275.82h25.62
		l-4.97-29.12c-0.42-2.43-0.88-4.89-1.36-7.38c-0.49-2.5-0.9-4.77-1.23-6.83c-0.37,1.12-0.86,2.39-1.47,3.81
		c-0.61,1.42-1.2,2.81-1.78,4.17c-0.58,1.35-1.14,2.61-1.68,3.78c-0.54,1.17-0.92,2.03-1.15,2.59L199.16,275.82z"/>
	<path class="st0" d="M293.24,276.59l-4.69,38.08h-22.68l12.46-101.99h30.94c6.25,0,11.58,0.67,16,2c4.41,1.33,8.02,3.16,10.81,5.5
		c2.8,2.33,4.84,5.1,6.12,8.29c1.28,3.2,1.92,6.66,1.92,10.4c0,3.78-0.5,7.35-1.5,10.71c-1,3.36-2.46,6.45-4.38,9.27
		c-1.91,2.82-4.26,5.32-7.04,7.49c-2.78,2.17-5.94,3.96-9.48,5.35c1.4,0.79,2.72,1.75,3.96,2.87c1.24,1.12,2.21,2.52,2.9,4.2
		l14.84,35.91h-20.58c-1.91,0-3.52-0.37-4.83-1.12c-1.31-0.75-2.22-1.82-2.73-3.22l-11.06-30.17c-0.51-1.31-1.2-2.23-2.06-2.77
		c-0.86-0.54-2.13-0.81-3.81-0.81H293.24z M299.05,229.69l-3.85,31.15h8.33c3.27,0,6.04-0.5,8.33-1.5c2.29-1,4.14-2.35,5.56-4.02
		c1.42-1.68,2.45-3.64,3.08-5.88c0.63-2.24,0.95-4.6,0.95-7.07c0-1.91-0.28-3.65-0.84-5.21c-0.56-1.56-1.44-2.89-2.62-3.99
		c-1.19-1.1-2.68-1.95-4.48-2.55c-1.8-0.61-3.91-0.91-6.33-0.91H299.05z"/>
	<path class="st0" d="M434.01,212.68l-2.38,18.06h-25.9l-10.36,83.93h-22.68l10.22-83.93h-26.04l2.24-18.06H434.01z"/>
	<path class="st0" d="M492.53,278.9c0.75-1.54,1.53-3.06,2.34-4.55c0.82-1.49,1.67-2.99,2.56-4.48l31.22-53.69
		c0.93-1.59,2.1-2.57,3.5-2.94c1.4-0.37,2.75-0.56,4.06-0.56h17.92l-12.6,101.99h-20.02l7.14-59.36c0.14-1.26,0.36-2.65,0.67-4.17
		c0.3-1.52,0.64-3.09,1.01-4.73l-30.66,52.64c-0.93,1.59-2.15,2.76-3.64,3.54c-1.49,0.77-3.13,1.16-4.9,1.16h-3.08
		c-1.77,0-3.33-0.4-4.66-1.19c-1.33-0.79-2.25-1.96-2.76-3.5l-17.92-52.78c-0.09,1.59-0.17,3.13-0.24,4.62
		c-0.07,1.49-0.18,2.85-0.32,4.06l-7,59.71h-20.16l12.6-101.92h17.36c0.98,0,1.84,0,2.59,0c0.75,0,1.41,0.11,2,0.32
		c0.58,0.21,1.08,0.55,1.5,1.02c0.42,0.47,0.77,1.14,1.05,2.03l17.92,53.75C490.99,272.8,491.83,275.82,492.53,278.9z"/>
	<path class="st0" d="M648.35,314.67h-17.64c-1.96,0-3.54-0.46-4.73-1.37c-1.19-0.91-1.9-2.11-2.13-3.61l-3.15-18.34h-34.65
		l-7.56,18.34c-0.51,1.31-1.52,2.46-3.01,3.47c-1.49,1-3.15,1.5-4.97,1.5h-17.92l48.72-101.99h23.38L648.35,314.67z M592.42,275.82
		h25.62l-4.97-29.12c-0.42-2.43-0.88-4.89-1.36-7.38c-0.49-2.5-0.9-4.77-1.23-6.83c-0.37,1.12-0.86,2.39-1.47,3.81
		c-0.61,1.42-1.2,2.81-1.79,4.17c-0.58,1.35-1.14,2.61-1.68,3.78c-0.54,1.17-0.92,2.03-1.16,2.59L592.42,275.82z"/>
	<path class="st0" d="M686.25,212.78c0.68,0.07,1.28,0.23,1.82,0.49c0.54,0.26,1.01,0.62,1.43,1.08c0.42,0.47,0.84,1.07,1.26,1.82
		l35.77,63c0.09-1.63,0.23-3.2,0.42-4.69c0.19-1.49,0.35-2.89,0.49-4.2l6.86-57.61h20.16l-12.6,101.99h-11.9
		c-1.77,0-3.24-0.26-4.41-0.77c-1.17-0.51-2.17-1.52-3.01-3.01l-35.63-62.93c-0.09,1.31-0.2,2.57-0.31,3.78
		c-0.12,1.21-0.22,2.36-0.32,3.43l-7,59.5h-20.16l12.6-101.99h12.04C684.75,212.68,685.57,212.71,686.25,212.78z"/>
	<path class="st1" d="M483.17,425.67c-1.23,0-2.06-0.32-2.49-0.95c-0.44-0.63-0.66-1.4-0.66-2.31l1-11.08
		c-1.33,2.28-2.78,4.34-4.36,6.2c-1.58,1.86-3.23,3.44-4.96,4.75s-3.54,2.33-5.41,3.04s-3.77,1.08-5.7,1.08
		c-4.55,0-8.08-1.65-10.58-4.96c-2.5-3.31-3.75-8.11-3.75-14.41c0-2.87,0.3-5.74,0.89-8.61c0.59-2.87,1.44-5.62,2.55-8.24
		s2.43-5.07,3.99-7.32c1.56-2.26,3.29-4.21,5.2-5.85c1.91-1.64,3.98-2.94,6.22-3.88c2.24-0.95,4.58-1.42,7.04-1.42
		c2.59,0,4.96,0.51,7.11,1.52c2.15,1.01,3.98,2.47,5.49,4.36l3.62-29.24h9.19L488,425.67H483.17z M464.11,418.9
		c1.68,0,3.37-0.52,5.07-1.55c1.7-1.03,3.34-2.47,4.94-4.31c1.59-1.84,3.08-4.02,4.46-6.56c1.38-2.54,2.58-5.31,3.6-8.32l1.73-14.07
		c-1.33-1.85-2.92-3.17-4.78-3.94c-1.86-0.77-3.73-1.16-5.62-1.16c-2.76,0-5.26,0.82-7.48,2.47c-2.22,1.65-4.11,3.77-5.67,6.38
		c-1.56,2.61-2.76,5.52-3.6,8.74c-0.84,3.22-1.26,6.39-1.26,9.5c0,4.17,0.75,7.34,2.26,9.53S461.38,418.9,464.11,418.9z"/>
	<path class="st1" d="M523.7,372.49l-6.41,53.18h-9.19l6.41-53.18H523.7z M527.21,355.79c0,0.91-0.18,1.76-0.55,2.55
		c-0.37,0.79-0.86,1.49-1.47,2.1c-0.61,0.61-1.3,1.09-2.07,1.44c-0.77,0.35-1.57,0.53-2.42,0.53c-0.81,0-1.59-0.17-2.36-0.53
		c-0.77-0.35-1.44-0.83-2.02-1.44c-0.58-0.61-1.04-1.31-1.39-2.1c-0.35-0.79-0.53-1.64-0.53-2.55c0-0.91,0.17-1.77,0.53-2.57
		c0.35-0.8,0.82-1.51,1.42-2.13c0.59-0.61,1.28-1.1,2.05-1.47c0.77-0.37,1.56-0.55,2.36-0.55c0.84,0,1.64,0.18,2.42,0.53
		c0.77,0.35,1.46,0.83,2.07,1.44c0.61,0.61,1.09,1.33,1.44,2.15C527.04,354.01,527.21,354.88,527.21,355.79z"/>
	<path class="st1" d="M575.93,387.24c-0.04,1.75-0.25,3.33-0.66,4.73c-0.4,1.4-0.9,2.7-1.5,3.88c-0.6,1.19-1.24,2.31-1.94,3.36
		c-0.7,1.05-1.35,2.1-1.94,3.15c-0.6,1.05-1.09,2.13-1.5,3.23s-0.6,2.3-0.6,3.6c0,1.47,0.36,2.8,1.08,3.99
		c0.72,1.19,1.5,2.42,2.36,3.67s1.65,2.63,2.36,4.12c0.72,1.49,1.08,3.25,1.08,5.28c0,2.48-0.58,4.84-1.73,7.06
		c-1.16,2.22-2.8,4.19-4.94,5.91c-2.13,1.71-4.73,3.07-7.8,4.07c-3.06,1-6.5,1.5-10.32,1.5c-3.04,0-5.82-0.31-8.32-0.94
		c-2.5-0.63-4.64-1.52-6.41-2.68s-3.13-2.55-4.09-4.17c-0.96-1.63-1.44-3.42-1.44-5.38c0-2.77,0.72-5.15,2.15-7.14
		s3.32-3.64,5.67-4.93c2.34-1.29,5.01-2.24,8.01-2.83c2.99-0.59,6.05-0.89,9.16-0.89c1.26,0,2.51,0.05,3.75,0.16
		c1.24,0.11,2.48,0.25,3.7,0.42c-0.31-0.66-0.57-1.36-0.76-2.07c-0.19-0.72-0.29-1.5-0.29-2.34c0-1.08,0.17-2.21,0.5-3.36
		c0.33-1.16,0.88-2.45,1.65-3.88c-1.33,0.91-2.82,1.61-4.46,2.1c-1.65,0.49-3.52,0.74-5.62,0.74c-2.03,0-3.93-0.33-5.7-1
		c-1.77-0.66-3.32-1.64-4.65-2.94c-1.33-1.29-2.38-2.91-3.15-4.86c-0.77-1.94-1.16-4.21-1.16-6.8c0-2.52,0.46-5,1.39-7.43
		c0.93-2.43,2.28-4.6,4.07-6.51s3.99-3.44,6.62-4.59c2.62-1.16,5.65-1.73,9.08-1.73c3.85,0,7.19,0.91,10.03,2.73h14.44l-0.42,3.1
		c-0.07,0.6-0.27,1.14-0.6,1.63c-0.33,0.49-0.83,0.79-1.5,0.89l-6.62,1.16c0.32,0.91,0.56,1.86,0.74,2.86
		C575.85,385.06,575.93,386.12,575.93,387.24z M566.17,426.98c0-0.91-0.09-1.76-0.26-2.55c-0.18-0.79-0.4-1.53-0.68-2.23
		c-1.89-0.32-3.67-0.54-5.33-0.68s-3.23-0.21-4.7-0.21c-2.87,0-5.36,0.25-7.46,0.76c-2.1,0.51-3.83,1.18-5.2,2.02
		c-1.37,0.84-2.38,1.81-3.05,2.91s-1,2.25-1,3.44c0,2.52,1.06,4.44,3.18,5.78c2.12,1.33,5.12,1.99,9,1.99
		c2.31,0,4.42-0.31,6.33-0.92c1.91-0.61,3.54-1.43,4.88-2.44c1.35-1.02,2.4-2.21,3.15-3.57
		C565.79,429.92,566.17,428.48,566.17,426.98z M555.67,401.67c1.89,0,3.55-0.41,4.99-1.23c1.43-0.82,2.65-1.91,3.65-3.25
		c1-1.35,1.76-2.86,2.28-4.54c0.52-1.68,0.79-3.38,0.79-5.09c0-3.08-0.78-5.41-2.34-6.98c-1.56-1.58-3.7-2.36-6.43-2.36
		c-1.89,0-3.55,0.39-4.99,1.15c-1.44,0.77-2.64,1.8-3.62,3.1c-0.98,1.3-1.72,2.77-2.23,4.41c-0.51,1.65-0.76,3.36-0.76,5.15
		c0,3.15,0.76,5.55,2.28,7.19C550.81,400.85,552.94,401.67,555.67,401.67z"/>
	<path class="st1" d="M606.86,372.49l-6.41,53.18h-9.19l6.41-53.18H606.86z M610.37,355.79c0,0.91-0.18,1.76-0.55,2.55
		c-0.37,0.79-0.86,1.49-1.47,2.1c-0.61,0.61-1.3,1.09-2.07,1.44c-0.77,0.35-1.57,0.53-2.42,0.53c-0.81,0-1.59-0.17-2.36-0.53
		c-0.77-0.35-1.44-0.83-2.02-1.44c-0.58-0.61-1.04-1.31-1.39-2.1c-0.35-0.79-0.53-1.64-0.53-2.55c0-0.91,0.17-1.77,0.53-2.57
		c0.35-0.8,0.82-1.51,1.42-2.13c0.59-0.61,1.28-1.1,2.05-1.47c0.77-0.37,1.56-0.55,2.36-0.55c0.84,0,1.64,0.18,2.42,0.53
		c0.77,0.35,1.46,0.83,2.07,1.44c0.61,0.61,1.09,1.33,1.44,2.15C610.2,354.01,610.37,354.88,610.37,355.79z"/>
	<path class="st1" d="M624.6,415.64c0-0.21,0.01-0.48,0.03-0.81c0.02-0.33,0.05-0.81,0.11-1.44s0.13-1.45,0.24-2.47
		c0.1-1.01,0.26-2.34,0.47-3.99l3.31-26.62h-5.93c-0.46,0-0.83-0.13-1.13-0.39c-0.3-0.26-0.45-0.67-0.45-1.23
		c0-0.11,0.02-0.32,0.05-0.63c0.03-0.31,0.08-0.67,0.13-1.08c0.05-0.4,0.11-0.81,0.16-1.23c0.05-0.42,0.1-0.82,0.13-1.21l8.19-1.1
		l3.94-16.43c0.14-0.53,0.4-0.95,0.79-1.29c0.38-0.33,0.86-0.5,1.42-0.5h4.94l-2.31,18.32h13.96l-0.79,6.77h-14.02l-3.2,26.15
		c-0.18,1.44-0.31,2.59-0.39,3.46c-0.09,0.88-0.16,1.58-0.21,2.1c-0.05,0.53-0.09,0.89-0.11,1.1s-0.03,0.37-0.03,0.47
		c0,1.79,0.41,3.11,1.23,3.96s1.95,1.29,3.39,1.29c0.91,0,1.71-0.13,2.42-0.39c0.7-0.26,1.3-0.55,1.81-0.87
		c0.51-0.32,0.94-0.6,1.29-0.87c0.35-0.26,0.66-0.39,0.94-0.39s0.5,0.07,0.66,0.21c0.16,0.14,0.32,0.37,0.5,0.68l1.94,4.46
		c-1.68,1.5-3.61,2.69-5.8,3.54c-2.19,0.86-4.38,1.29-6.59,1.29c-3.4,0-6.07-0.93-8.03-2.78
		C625.69,421.87,624.67,419.18,624.6,415.64z"/>
	<path class="st1" d="M699.47,425.67h-4.83c-1.23,0-2.06-0.32-2.49-0.95s-0.66-1.4-0.66-2.31l0.95-10.65
		c-1.26,2.22-2.62,4.24-4.07,6.04c-1.45,1.81-2.99,3.34-4.62,4.61c-1.63,1.27-3.33,2.25-5.12,2.95c-1.79,0.69-3.64,1.04-5.56,1.04
		c-2.1,0-4.01-0.41-5.72-1.23c-1.72-0.82-3.18-2.03-4.38-3.62c-1.21-1.59-2.14-3.55-2.81-5.88c-0.67-2.33-1-5-1-8.01
		c0-3.15,0.39-6.22,1.18-9.21c0.79-2.99,1.91-5.82,3.36-8.48c1.45-2.66,3.19-5.1,5.22-7.32c2.03-2.22,4.3-4.15,6.8-5.77
		c2.5-1.63,5.19-2.89,8.06-3.78c2.87-0.89,5.88-1.34,9.03-1.34c2.28,0,4.49,0.19,6.64,0.56s4.28,1.02,6.38,1.94L699.47,425.67z
		 M676.58,418.63c1.71,0,3.39-0.53,5.04-1.58c1.64-1.05,3.2-2.51,4.67-4.37s2.84-4.07,4.12-6.64c1.28-2.57,2.41-5.38,3.39-8.45
		l2.26-17.98c-0.77-0.62-1.53-0.93-2.28-0.93c-0.75,0-1.5,0-2.23,0c-2.1,0-4.13,0.34-6.09,1.02c-1.96,0.68-3.8,1.63-5.51,2.85
		c-1.71,1.22-3.27,2.68-4.67,4.37c-1.4,1.69-2.6,3.55-3.6,5.58s-1.78,4.18-2.34,6.47c-0.56,2.29-0.84,4.63-0.84,7.04
		C668.49,414.43,671.19,418.63,676.58,418.63z"/>
	<path class="st1" d="M718.68,425.67l9.4-77.33h9.19l-9.4,77.33H718.68z"/>
</g>
</svg>
